<svg width="252" height="252" viewBox="0 0 252 252" fill="none" xmlns="http://www.w3.org/2000/svg">
<g clip-path="url(#clip0_331_249)">
<path d="M43.4651 220.339H20.8973C9.3742 220.339 0 210.964 0 199.441V69.4566C0 57.934 9.3742 48.5593 20.8973 48.5593H56.3427C60.42 48.5593 63.7255 51.8649 63.7255 55.9421C63.7255 60.0194 60.42 63.325 56.3427 63.325H20.8973C17.5165 63.325 14.7656 66.0758 14.7656 69.4566V199.441C14.7656 202.822 17.5165 205.573 20.8973 205.573H43.4651C47.5424 205.573 50.8479 208.879 50.8479 212.956C50.8479 217.033 47.5424 220.339 43.4651 220.339Z" fill="#E3E3E3"/>
<path d="M231.103 220.339H203.613C199.536 220.339 196.23 217.033 196.23 212.956C196.23 208.879 199.536 205.573 203.613 205.573H231.103C234.483 205.573 237.234 202.823 237.234 199.441V69.4566C237.234 66.0758 234.483 63.325 231.103 63.325H195.657C191.58 63.325 188.274 60.0194 188.274 55.9421C188.274 51.8649 191.58 48.5593 195.657 48.5593H231.103C242.626 48.5593 252 57.9335 252 69.4566V199.441C252 210.964 242.626 220.339 231.103 220.339Z" fill="#ABABAB"/>
<path d="M114.687 203.443H88.0942C84.017 203.443 80.7114 200.137 80.7114 196.06C80.7114 191.983 84.017 188.677 88.0942 188.677H114.687C118.764 188.677 122.07 191.983 122.07 196.06C122.07 200.137 118.764 203.443 114.687 203.443Z" fill="#574D8C"/>
<path d="M114.687 237.234H88.0942C84.017 237.234 80.7114 233.929 80.7114 229.852C80.7114 225.774 84.017 222.469 88.0942 222.469H114.687C118.764 222.469 122.07 225.774 122.07 229.852C122.07 233.929 118.764 237.234 114.687 237.234Z" fill="#574D8C"/>
<path d="M144.876 30.8675L126 0C81.0093 0 44.4053 36.604 44.4053 81.5948C44.4053 126.586 81.0093 163.19 126 163.19L144.876 134.449V30.8675Z" fill="#0DB561"/>
<path d="M95.4743 181.292V244.617C95.4743 248.692 92.1717 252 88.0915 252H58.7965C46.2703 252 36.082 241.807 36.082 229.285V196.629C36.082 184.103 46.2703 173.909 58.7965 173.909H88.0915C92.1717 173.909 95.4743 177.217 95.4743 181.292Z" fill="#AA99FF"/>
<path d="M210.996 196.629V229.285C210.996 241.807 200.808 252 188.281 252H163.908C159.828 252 156.525 248.692 156.525 244.617V181.292C156.525 177.217 159.828 173.909 163.908 173.909H188.281C200.808 173.909 210.996 184.103 210.996 196.629Z" fill="#9966FF"/>
<path d="M207.595 81.5948C207.595 126.586 170.991 163.19 126 163.19V0C170.991 0 207.595 36.604 207.595 81.5948Z" fill="#0B9F55"/>
<path d="M137.864 72.6568L126 54.0029L106.16 42.845C101.248 40.0789 95.1548 43.6325 95.1548 49.2779V113.912C95.1548 119.543 101.219 123.111 106.16 120.35L126 109.192L137.864 84.3965V72.6568Z" fill="white"/>
<path d="M163.623 88.0328L126 109.192V54.0029L163.623 75.1621C168.633 77.9675 168.638 85.2125 163.623 88.0328Z" fill="#E8E8E8"/>
</g>
<defs>
<clipPath id="clip0_331_249">
<rect width="252" height="252" fill="white"/>
</clipPath>
</defs>
</svg>
