<svg width="252" height="252" viewBox="0 0 252 252" fill="none" xmlns="http://www.w3.org/2000/svg">
<g clip-path="url(#clip0_331_191)">
<path d="M190.016 0C169.252 0 152.694 10.8616 142.461 19.9773L142.101 20.3L136.273 26.8974L149.137 48.9115L158.658 38.9705C168.622 30.2093 179.743 25.3948 190.016 25.3948C210.745 25.3948 227.613 42.4834 227.613 63.4871C227.613 84.4907 210.745 101.579 190.016 101.579C158.516 101.579 137.106 58.2229 136.893 57.7838C135.653 55.1756 108.502 0 61.9839 0C27.8064 0 0 28.4792 0 63.4871C0 98.4949 27.8064 126.974 61.9839 126.974C78.7246 126.974 95.2011 120.038 109.635 106.912L109.945 106.627L115.727 100.077L102.858 78.0627L93.2908 88.0513C83.3226 97.0294 72.7853 101.579 61.9839 101.579C41.2548 101.579 24.3871 84.4907 24.3871 63.4871C24.3871 42.4834 41.2548 25.3948 61.9839 25.3948C93.4839 25.3948 114.894 68.7512 115.107 69.1903C116.347 71.7986 143.498 126.974 190.016 126.974C224.194 126.974 252 98.4949 252 63.4871C252 28.4792 224.194 0 190.016 0Z" fill="url(#paint0_linear_331_191)"/>
<g clip-path="url(#clip1_331_191)">
<path d="M72.1004 231.55C69.5279 231.55 67.4448 229.379 67.4448 226.702V192.637C67.4448 192.131 67.4298 191.498 67.4148 190.829C67.2854 185.051 67.3848 180.006 69.9479 176.794C72.691 173.356 76.8198 171.901 81.5748 172.702C84.1135 173.13 85.8385 175.619 85.4298 178.263C85.0191 180.906 82.6304 182.703 80.0898 182.277C78.1416 181.949 77.4948 182.533 77.1873 182.9C76.5816 184.218 76.6866 188.845 76.726 190.602C76.7429 191.331 76.7579 192.02 76.7579 192.639V226.704C76.756 229.379 74.6729 231.55 72.1004 231.55Z" fill="#FFCB27"/>
<path d="M79.5553 194.831H65.1703C62.5978 194.831 60.5146 192.66 60.5146 189.983C60.5146 187.306 62.5996 185.135 65.1703 185.135H79.5553C82.1278 185.135 84.2109 187.306 84.2109 189.983C84.2109 192.66 82.1259 194.831 79.5553 194.831Z" fill="#FFCB27"/>
<path d="M73 252C66.6456 252 60.2912 251.682 53.98 251.048C39.1562 249.556 27.3456 237.134 25.8981 221.51C24.7 208.575 24.7 195.459 25.8981 182.523C27.3456 166.9 39.1562 154.478 53.98 152.986C66.6006 151.717 79.3975 151.717 92.0181 152.986C106.842 154.478 118.652 166.902 120.1 182.523C121.298 195.459 121.298 208.575 120.1 221.51C118.652 237.134 106.842 249.558 92.0181 251.048C85.7087 251.682 79.3544 252 73 252ZM73 161.731C66.9437 161.731 60.8894 162.034 54.8762 162.639C44.4775 163.686 36.1881 172.441 35.1681 183.457C34.0262 195.773 34.0262 208.263 35.1681 220.581C36.1881 231.597 44.4775 240.352 54.8762 241.398C66.9025 242.609 79.0975 242.609 91.1237 241.398C101.522 240.352 109.812 231.597 110.832 220.581C111.974 208.265 111.974 195.773 110.832 183.457C109.812 172.441 101.522 163.686 91.1237 162.639C85.1106 162.034 79.0562 161.731 73 161.731Z" fill="#FFCB27"/>
</g>
<g clip-path="url(#clip2_331_191)">
<path d="M169.929 231.55C167.357 231.55 165.273 229.378 165.273 226.702V177.331C165.273 174.652 167.358 172.483 169.929 172.483C172.502 172.483 174.585 174.654 174.585 177.331V226.7C174.587 229.378 172.502 231.55 169.929 231.55Z" fill="#0DB561"/>
<path d="M184.123 231.417C176.229 231.417 169.196 226.897 165.769 219.624C164.636 217.22 165.589 214.315 167.897 213.136C170.205 211.956 172.995 212.948 174.127 215.352C176.006 219.339 179.743 221.721 184.123 221.721C190.35 221.721 195.416 215.508 195.416 207.87C195.416 200.232 190.35 194.019 184.123 194.019C179.025 194.019 175.903 196.128 174.3 200.654C173.409 203.166 170.732 204.451 168.32 203.526C165.907 202.598 164.674 199.81 165.562 197.299C168.527 188.931 175.117 184.323 184.123 184.323C195.485 184.323 204.727 194.886 204.727 207.872C204.727 220.858 195.484 231.417 184.123 231.417Z" fill="#0DB561"/>
<path d="M185 252C178.646 252 172.291 251.682 165.98 251.047C151.156 249.556 139.346 237.134 137.898 221.51C136.7 208.575 136.7 195.458 137.898 182.523C139.346 166.899 151.156 154.478 165.98 152.986C178.601 151.717 191.397 151.717 204.018 152.986C218.842 154.478 230.652 166.901 232.1 182.523C233.298 195.458 233.298 208.575 232.1 221.51C230.652 237.134 218.842 249.558 204.018 251.047C197.709 251.682 191.354 252 185 252ZM185 161.731C178.944 161.731 172.889 162.034 166.876 162.639C156.477 163.686 148.188 172.441 147.168 183.456C146.028 195.773 146.028 208.265 147.168 220.581C148.188 231.597 156.477 240.352 166.876 241.398C178.902 242.609 191.097 242.609 203.124 241.398C213.522 240.352 221.812 231.597 222.832 220.581C223.974 208.265 223.974 195.775 222.832 183.456C221.812 172.441 213.522 163.686 203.124 162.639C197.111 162.034 191.054 161.731 185 161.731Z" fill="#0DB561"/>
</g>
</g>
<defs>
<linearGradient id="paint0_linear_331_191" x1="126" y1="0" x2="126" y2="126.974" gradientUnits="userSpaceOnUse">
<stop stop-color="#AA99FF"/>
<stop offset="1" stop-color="#9966FF"/>
</linearGradient>
<clipPath id="clip0_331_191">
<rect width="252" height="252" fill="white"/>
</clipPath>
<clipPath id="clip1_331_191">
<rect width="96" height="99.967" fill="white" transform="translate(25 152.033)"/>
</clipPath>
<clipPath id="clip2_331_191">
<rect width="96" height="99.967" fill="white" transform="translate(137 152.033)"/>
</clipPath>
</defs>
</svg>
