<svg width="252" height="252" viewBox="0 0 252 252" fill="none" xmlns="http://www.w3.org/2000/svg">
<g clip-path="url(#clip0_331_201)">
<path d="M210.977 17.5814H17.5814C7.87146 17.5814 0 25.4529 0 35.1628V205.116C0 214.826 7.87146 222.698 17.5814 222.698H210.977C220.687 222.698 228.558 214.826 228.558 205.116V35.1628C228.558 25.4529 220.687 17.5814 210.977 17.5814Z" fill="#0DB561"/>
<path d="M190.465 252C224.45 252 252 224.45 252 190.465C252 156.48 224.45 128.93 190.465 128.93C156.48 128.93 128.93 156.48 128.93 190.465C128.93 224.45 156.48 252 190.465 252Z" fill="#FFCB27"/>
<path d="M55.6745 41.0233C53.3525 40.9929 51.1341 40.057 49.4921 38.415C47.85 36.7729 46.9141 34.5546 46.8838 32.2326V8.7907C46.8838 6.45926 47.8099 4.22331 49.4585 2.57474C51.1071 0.92616 53.343 0 55.6745 0C58.0059 0 60.2419 0.92616 61.8904 2.57474C63.539 4.22331 64.4652 6.45926 64.4652 8.7907V32.2326C64.4348 34.5546 63.4989 36.7729 61.8569 38.415C60.2148 40.057 57.9965 40.9929 55.6745 41.0233Z" fill="#1C5E3F"/>
<path d="M114.279 41.0233C111.957 40.9929 109.739 40.057 108.097 38.415C106.455 36.7729 105.519 34.5546 105.488 32.2326V8.7907C105.488 6.45926 106.414 4.22331 108.063 2.57474C109.712 0.92616 111.948 0 114.279 0C116.61 0 118.846 0.92616 120.495 2.57474C122.144 4.22331 123.07 6.45926 123.07 8.7907V32.2326C123.039 34.5546 122.103 36.7729 120.461 38.415C118.819 40.057 116.601 40.9929 114.279 41.0233Z" fill="#1C5E3F"/>
<path d="M172.884 41.0233C170.562 40.9929 168.344 40.057 166.702 38.415C165.06 36.7729 164.124 34.5546 164.093 32.2326V8.7907C164.093 6.45926 165.019 4.22331 166.668 2.57474C168.317 0.92616 170.553 0 172.884 0C175.215 0 177.451 0.92616 179.1 2.57474C180.749 4.22331 181.675 6.45926 181.675 8.7907V32.2326C181.644 34.5546 180.708 36.7729 179.066 38.415C177.424 40.057 175.206 40.9929 172.884 41.0233Z" fill="#1C5E3F"/>
<path d="M55.6745 96.6977C62.1478 96.6977 67.3955 91.4501 67.3955 84.9768C67.3955 78.5035 62.1478 73.2559 55.6745 73.2559C49.2013 73.2559 43.9536 78.5035 43.9536 84.9768C43.9536 91.4501 49.2013 96.6977 55.6745 96.6977Z" fill="white"/>
<path d="M55.6745 137.721C62.1478 137.721 67.3955 132.473 67.3955 126C67.3955 119.527 62.1478 114.279 55.6745 114.279C49.2013 114.279 43.9536 119.527 43.9536 126C43.9536 132.473 49.2013 137.721 55.6745 137.721Z" fill="white"/>
<path d="M55.6745 178.744C62.1478 178.744 67.3955 173.497 67.3955 167.023C67.3955 160.55 62.1478 155.302 55.6745 155.302C49.2013 155.302 43.9536 160.55 43.9536 167.023C43.9536 173.497 49.2013 178.744 55.6745 178.744Z" fill="white"/>
<path d="M114.28 96.6977C120.753 96.6977 126 91.4501 126 84.9768C126 78.5035 120.753 73.2559 114.28 73.2559C107.806 73.2559 102.559 78.5035 102.559 84.9768C102.559 91.4501 107.806 96.6977 114.28 96.6977Z" fill="white"/>
<path d="M114.28 137.721C120.753 137.721 126 132.473 126 126C126 119.527 120.753 114.279 114.28 114.279C107.806 114.279 102.559 119.527 102.559 126C102.559 132.473 107.806 137.721 114.28 137.721Z" fill="white"/>
<path d="M114.28 178.744C120.753 178.744 126 173.497 126 167.023C126 160.55 120.753 155.302 114.28 155.302C107.806 155.302 102.559 160.55 102.559 167.023C102.559 173.497 107.806 178.744 114.28 178.744Z" fill="white"/>
<path d="M172.884 96.6977C179.357 96.6977 184.605 91.4501 184.605 84.9768C184.605 78.5035 179.357 73.2559 172.884 73.2559C166.411 73.2559 161.163 78.5035 161.163 84.9768C161.163 91.4501 166.411 96.6977 172.884 96.6977Z" fill="white"/>
<path d="M202.186 219.767C200.782 219.759 199.399 219.414 198.155 218.761C196.912 218.109 195.842 217.168 195.037 216.017L183.316 199.725C182.254 198.214 181.681 196.414 181.675 194.567V171.126C181.675 168.794 182.601 166.558 184.25 164.91C185.898 163.261 188.134 162.335 190.466 162.335C192.797 162.335 195.033 163.261 196.681 164.91C198.33 166.558 199.256 168.794 199.256 171.126V191.754L209.336 205.819C210.532 207.668 210.991 209.898 210.622 212.068C210.253 214.238 209.083 216.191 207.344 217.54C205.924 218.842 204.107 219.627 202.186 219.767Z" fill="white"/>
</g>
<defs>
<clipPath id="clip0_331_201">
<rect width="252" height="252" fill="white"/>
</clipPath>
</defs>
</svg>
